# xmcd CD database file
#
# Track frame offsets:
#	150
#	7404
#	32214
#	52902
#	93158
#	116040
#	153777
#	180020
#	218789
#	270779
#	311674
#
# Disc length: 4324 seconds
#
# Revision: 0
# Processed by: cddbd v1.5.1PL0 Copyright (c) Steve Scherf et al.
# Submitted via: CDex 1.51
#
DISCID=8110e20b
DTITLE=Frank Zappa - JOE'S GARAGE
DYEAR=1900
DGENRE=Jazz
TTITLE0=Acts II - Scrutinizer Postlude
TTITLE1=Acts II - A Token of My Extreme
TTITLE2=Acts II - Stick It Out
TTITLE3=Acts II - Sy Borg
TTITLE4=Acts II - Dong Work for Yuda
TTITLE5=Acts II - Keep It Greasey
TTITLE6=Acts I I - Outside Now
TTITLE7=Acts III - He Used to Cut the Grass
TTITLE8=Acts III - Packard Goose
TTITLE9=Acts III -  Watermelon in Easter Hay
TTITLE10=Acts III -  A Little Green Rosetta
EXTD=
EXTT0=
EXTT1=
EXTT2=
EXTT3=
EXTT4=
EXTT5=
EXTT6=
EXTT7=
EXTT8=
EXTT9=
EXTT10=
PLAYORDER=
